# xmcd CD database file
#
# Track frame offsets:
#	150
#	125931
#	193456
#
# Disc length: 3087 seconds
#
# Revision: 0
# Processed by: cddbd v1.5.2PL0 Copyright (c) Steve Scherf et al.
# Submitted via: CDex 1.51
#
DISCID=300c0d03
DTITLE=Robert Glasper Trio and Bilal - Festival Jazz à la Villette 2010 [2|2]
DYEAR=2010
DGENRE=Jazz
TTITLE0=Robert Glasper Trio and Bilal - Yes I'm Country(and that's o.k)
TTITLE1=Robert Glasper Trio and Bilal - All Matters (feat. Bilal)
TTITLE2=Robert Glasper Trio and Bilal - [Encore] Reminisce (feat. Bilal)
EXTD=YEAR: 2010
EXTT0=
EXTT1=
EXTT2=
PLAYORDER=
